<svg xmlns="http://www.w3.org/2000/svg" xmlns:xlink="http://www.w3.org/1999/xlink" width="50" height="50" viewBox="0 0 375 375" preserveAspectRatio="xMidYMid meet" version="1.0">
  <path stroke-linecap="round" transform="matrix(0.00327881, 0.749993, -0.749993, 0.00327881, 198.030342, 5.878505)" fill="none" stroke-linejoin="miter" d="M 21.500502 21.49924 L 462.645356 21.500733 " stroke="#64748b" stroke-width="18" stroke-opacity="0.8" stroke-miterlimit="4"/>
  <path stroke-linecap="round" transform="matrix(0, 0.75, -0.75, 0, 247.059159, 138.005146)" fill="none" stroke-linejoin="miter" d="M 21.498348 21.500755 L 231.420237 21.500755 " stroke="#64748b" stroke-width="10" stroke-opacity="0.8" stroke-miterlimit="4"/>
  <path stroke-linecap="round" transform="matrix(0, 0.75, -0.75, 0, 295.257876, 177.125232)" fill="none" stroke-linejoin="miter" d="M 21.499692 21.500085 L 118.015323 21.500085 " stroke="#64748b" stroke-width="10" stroke-opacity="0.8" stroke-miterlimit="4"/>
  <path stroke-linecap="round" transform="matrix(0, -0.75, 0.75, 0, 118.33307, 330.671345)" fill="none" stroke-linejoin="miter" d="M 21.499294 21.498617 L 231.421183 21.498617 " stroke="#64748b" stroke-width="10" stroke-opacity="0.8" stroke-miterlimit="4"/>
  <path stroke-linecap="round" transform="matrix(0, -0.75, 0.75, 0, 70.142395, 291.551261)" fill="none" stroke-linejoin="miter" d="M 21.500641 21.497641 L 118.016272 21.497641 " stroke="#64748b" stroke-width="10" stroke-opacity="0.8" stroke-miterlimit="4"/>
  <path stroke-linecap="round" transform="matrix(-0.75, 0, 0, -0.75, 278.329673, 95.378533)" fill="none" stroke-linejoin="miter" d="M 21.502066 21.499504 L 231.418746 21.499504 " stroke="#64748b" stroke-width="10" stroke-opacity="0.8" stroke-miterlimit="4"/>
</svg>
